<svg width="40" height="31" viewBox="0 0 40 31" fill="none" xmlns="http://www.w3.org/2000/svg">
<g clip-path="url(#clip0_240_45)">
<path d="M9.09094 30.0078V14.5531L4.29797 10.1683L0 7.73499V27.2805C0 28.7895 1.22266 30.0078 2.72734 30.0078H9.09094Z" fill="#4285F4"/>
<path d="M30.9091 30.0078H37.2727C38.7819 30.0078 40 28.785 40 27.2805V7.73517L35.1319 10.5222L30.9091 14.5531V30.0078Z" fill="#328AC9"/>
<path d="M9.09091 14.5531L8.43872 8.51452L9.09091 2.73499L20 10.9169L30.909 2.73499L31.6386 8.20249L30.909 14.5531L20 22.735L9.09091 14.5531Z" fill="#328AC9"/>
<path d="M30.9091 2.73501V14.5531L40 7.73501V4.09861C40 0.72595 36.15 -1.19671 33.4547 0.82595L30.9091 2.73501Z" fill="#328AC9"/>
<path d="M0 7.7349L4.18109 10.8708L9.09094 14.553V2.7349L6.54531 0.825839C3.84531 -1.19697 0 0.725839 0 4.09834V7.73474V7.7349Z" fill="#328AC9"/>
</g>
<defs>
<clipPath id="clip0_240_45">
<rect width="40" height="30.1562" fill="white"/>
</clipPath>
</defs>
</svg>
